<svg xmlns="http://www.w3.org/2000/svg" viewBox="0 0 236.05 59.32"><defs><style>.cls-1{fill:#202020;}</style></defs><g id="Layer_2" data-name="Layer 2"><g id="Art"><path class="cls-1" d="M20.18,21.66,17.09,20a13.55,13.55,0,0,0-.82,1.21A38.33,38.33,0,0,0,13.5,27.3a22.61,22.61,0,0,0,.64,16.48,22.32,22.32,0,0,0,3.92,6.07,22.05,22.05,0,0,0,5.62,4.24A23.78,23.78,0,0,0,35.21,57,19.22,19.22,0,0,0,45,54.45a27.66,27.66,0,0,0,5.23-3.61,41.56,41.56,0,0,0,8-10.63,31.37,31.37,0,0,0,3.38-9c.29-1.5.45-3,.59-4.54a32.7,32.7,0,0,0,.28-5.4A17.62,17.62,0,0,0,56.47,8.88,14.91,14.91,0,0,0,51.8,6.39c-.42-.16-.84-.3-1.24-.48a4.88,4.88,0,0,1-.66-.45c.29-.13.45-.28.62-.28A15.4,15.4,0,0,1,58.3,6.74a12.37,12.37,0,0,1,5,5.28A23.63,23.63,0,0,1,65.9,25.83a39.15,39.15,0,0,1-5.56,15.89,56.56,56.56,0,0,1-6.71,9.4,26.45,26.45,0,0,1-7.86,6.11,21,21,0,0,1-11.1,2A31.63,31.63,0,0,1,22.85,56c-6.7-3.36-11.26-8.52-13.25-15.81a22.92,22.92,0,0,1-.21-10.42,29.8,29.8,0,0,1,4.54-11l.19-.3-4-2.12c-1.87-1-3.76-1.94-5.59-3a45,45,0,0,1-3.8-2.48A3.09,3.09,0,0,1,0,9.7c-.11-.2,0-.33.26-.26a2,2,0,0,1,.5.21q7.05,3.75,14.1,7.5c.81.43,1.67.76,2.48,1.19,5.74,3,11.49,6,17.2,9.05a5.4,5.4,0,0,1,1.6,1.49c.19.24.07.73.11,1.22-2.32-.92-4.33-2.25-6.5-3.28A15.9,15.9,0,0,0,27,31.54a13.55,13.55,0,0,0-1.09,5.58,11.08,11.08,0,0,0,5.42,9.5,10.75,10.75,0,0,0,3.89,1.28s.09,0,.13,0c-.5-1.83.28-3.21,1.52-4.43a3,3,0,0,1,1.69-.93c1-.14,1.88-.42,2.84-.5a2.65,2.65,0,0,1,2.38,1.3c.3.42.54.88.8,1.31a11.65,11.65,0,0,0,3.65-9.84c-.07-.79,0-1.59,0-2.38a14.35,14.35,0,0,0-1-5.61A9.33,9.33,0,0,0,42.76,22a6.87,6.87,0,0,0-3.31-.6h-.92l0-.19a2.91,2.91,0,0,1,.45-.26c3.2-1.2,5.5-.58,7.86,2.11a12.49,12.49,0,0,1,2.89,6.76,24.52,24.52,0,0,1-.92,9.71,13.25,13.25,0,0,1-3.62,6.48.5.5,0,0,0-.18.3c0,1.08-.73,1.66-1.47,2.25a7.84,7.84,0,0,1-3.08,1.31,4.7,4.7,0,0,1-3.57-.51,6.31,6.31,0,0,0-2-.66,13.07,13.07,0,0,1-9-6.11,11.82,11.82,0,0,1-1-9.91A18.43,18.43,0,0,1,28.32,26l-6.54-3.49A17.66,17.66,0,0,0,18.4,30c.42.05.78.11,1.14.13a.53.53,0,0,1,.53.61,1.09,1.09,0,0,0,.52,1,7.36,7.36,0,0,1,2.86,4.16A7,7,0,0,1,23.37,38a3.26,3.26,0,0,1-.16.67c-.67,2.13-1,2.45-3.5,2.7h-.63c.4.83.72,1.59,1.13,2.32A19.14,19.14,0,0,0,28,51.5a15.41,15.41,0,0,0,15.31-.09,17.75,17.75,0,0,0,6.31-6.08,6.41,6.41,0,0,0,.45-.58c.28-.53.54-1.07.8-1.62a26.58,26.58,0,0,0,2.68-11.84,22.31,22.31,0,0,0-.43-4.56c-.57-2.51-1.5-4.9-3.66-6.55-.65-.48-1.38-.85-2.07-1.28a.93.93,0,0,1-.3-.2c-.12-.17-.3-.4-.26-.56s.31-.31.5-.34a4.71,4.71,0,0,1,3.2.75,9.49,9.49,0,0,1,3.31,3.85A20.38,20.38,0,0,1,56.08,31a28,28,0,0,1-2.62,12.83,20.54,20.54,0,0,1-6.6,8.44A17.17,17.17,0,0,1,34.23,55.4c-5.15-.61-9.14-3.28-12.52-7a23.71,23.71,0,0,1-4.57-7.11.8.8,0,0,0-.39-.33,6,6,0,0,1-3.36-3.21,5.63,5.63,0,0,1,.89-5.47,15,15,0,0,1,1.5-1.6c.05-.06.11-.14.17-.14.63-.06.67-.56.78-1a33.65,33.65,0,0,1,3.2-7.39ZM18.76,39.73a2.38,2.38,0,0,0,2.56-1.28,3.67,3.67,0,0,0,.14-3.06A7.25,7.25,0,0,0,19.9,33a2.17,2.17,0,0,0-.93-.6,2.83,2.83,0,0,0-3,1.4,4.05,4.05,0,0,0,.32,4.47A2.76,2.76,0,0,0,18.76,39.73ZM36.5,46.8a1.93,1.93,0,0,0,.68,1.77,5.85,5.85,0,0,0,1.57.81c1.47.48,3.46-.75,4.14-1.92a1.55,1.55,0,0,0,.19-1.28,4.94,4.94,0,0,0-1.81-2.52A1.38,1.38,0,0,0,40,43.48c-.54.17-1.08.34-1.6.56A2.68,2.68,0,0,0,36.5,46.8Z"/><path class="cls-1" d="M43.57,2.11c.29,0,.58,0,.87.08,1.94.24,3,1.56,3.75,3.19A.64.64,0,0,1,48,6a1.33,1.33,0,0,0-.59,1.17,7.4,7.4,0,0,1-2.25,5.09,4.11,4.11,0,0,1-3.82,1.21A4.05,4.05,0,0,1,39.38,12a6,6,0,0,1-1.8-5.51,6.67,6.67,0,0,1,.91-1.93C39.61,2.63,41.48,2.14,43.57,2.11Zm-.71,2.31a3.29,3.29,0,0,0-.56.09,3.84,3.84,0,0,0-2.79,4.62A1.62,1.62,0,0,0,40,10a14.38,14.38,0,0,0,1.64,1.17,1.38,1.38,0,0,0,1.24.1,4.55,4.55,0,0,0,2.37-1.93,2.75,2.75,0,0,0,.32-3.15A3,3,0,0,0,42.86,4.42Z"/><path class="cls-1" d="M26.41,19.47a15.32,15.32,0,0,1-2.54-.68c-2.05-.94-2.57-2.73-1.48-4.71A6.53,6.53,0,0,1,24.3,12a2.38,2.38,0,0,1,.82-.25c.82-.19,1.64-.4,2.46-.54a2.8,2.8,0,0,1,2.92,1.4,9.37,9.37,0,0,1,.89,1.65,3.18,3.18,0,0,1-1.51,4.12,17.81,17.81,0,0,1-2.8,1,2.29,2.29,0,0,1-.64,0Zm-.18-.78a4.22,4.22,0,0,0,3.41-2.25,1.43,1.43,0,0,0,0-1.53,14.13,14.13,0,0,0-1.3-1.77,1.57,1.57,0,0,0-1.76-.43c-.58.19-1.16.38-1.72.62a2.67,2.67,0,0,0-1.59,3.07A3.08,3.08,0,0,0,26.23,18.69Z"/><path class="cls-1" d="M23.88,2.63A3.1,3.1,0,0,1,27.17,0l.27,0c2.25.33,2.65,2.17,2.29,4A4.35,4.35,0,0,1,26,7.68a4.1,4.1,0,0,1-1.92-.24,2.08,2.08,0,0,1-1.21-2A4,4,0,0,1,23,4.25c0-.19.25-.34.45-.6a11.69,11.69,0,0,0,.3,1.68,3,3,0,0,0,.66,1.11,1.28,1.28,0,0,0,1.51.18,4.7,4.7,0,0,0,2.39-2.18A1.93,1.93,0,0,0,28.05,2a2.19,2.19,0,0,0-2.55-.37C25,2,24.45,2.29,23.88,2.63Z"/><path class="cls-1" d="M91.79,8.26H80v6.93H90.54v2H80v8.46H77.84V6.24h14Z"/><path class="cls-1" d="M114.67,17.36a10.91,10.91,0,0,1-.59,3.74,7.23,7.23,0,0,1-1.65,2.69,6.79,6.79,0,0,1-2.55,1.62,10.35,10.35,0,0,1-6.6,0,6.87,6.87,0,0,1-2.55-1.6,7.36,7.36,0,0,1-1.65-2.65,10.49,10.49,0,0,1-.58-3.64V6.24h2.19V17.38a6.88,6.88,0,0,0,1.57,4.86,5.64,5.64,0,0,0,4.36,1.69,5.71,5.71,0,0,0,4.27-1.61,6.55,6.55,0,0,0,1.58-4.8V6.24h2.2Z"/><path class="cls-1" d="M130,25.65h-2.19V8.26h-6.52v-2h15.22v2H130Z"/><path class="cls-1" d="M159.23,17.36a10.92,10.92,0,0,1-.58,3.74A7.36,7.36,0,0,1,157,23.79a6.79,6.79,0,0,1-2.55,1.62,9.67,9.67,0,0,1-3.32.54,9.52,9.52,0,0,1-3.28-.54,6.87,6.87,0,0,1-2.55-1.6,7.1,7.1,0,0,1-1.65-2.65,10.49,10.49,0,0,1-.59-3.64V6.24h2.19V17.38a6.93,6.93,0,0,0,1.57,4.86,5.66,5.66,0,0,0,4.37,1.69,5.72,5.72,0,0,0,4.27-1.61,6.6,6.6,0,0,0,1.58-4.8V6.24h2.19Z"/><path class="cls-1" d="M180.56,25.65l-5.63-7.54h-5.55v7.54h-2.19V6.24h8.35a9.67,9.67,0,0,1,2.9.41,6.53,6.53,0,0,1,2.2,1.18,5.39,5.39,0,0,1,1.42,1.83,5.64,5.64,0,0,1,.5,2.38,5.67,5.67,0,0,1-.39,2.17,5,5,0,0,1-1.1,1.67,6.25,6.25,0,0,1-1.68,1.18,7.93,7.93,0,0,1-2.1.66l6,7.93Zm-1.5-16.37a5.85,5.85,0,0,0-3.67-1h-6v7.9h6a7.06,7.06,0,0,0,2-.27,5,5,0,0,0,1.59-.8,3.63,3.63,0,0,0,1-1.26,3.76,3.76,0,0,0,.37-1.7A3.38,3.38,0,0,0,179.06,9.28Z"/><path class="cls-1" d="M204.05,8.23H192.21v6.63H202.8v2H192.21v6.79h12v2H190V6.24h14Z"/><path class="cls-1" d="M213.28,12.32a2.45,2.45,0,0,0,.81,1,5.71,5.71,0,0,0,1.61.83,18.77,18.77,0,0,0,2.63.71,11.52,11.52,0,0,1,4.79,2,4.35,4.35,0,0,1,1.53,3.53,5.11,5.11,0,0,1-1.85,4,6.08,6.08,0,0,1-2.08,1.11,8.74,8.74,0,0,1-2.67.39,11.4,11.4,0,0,1-4.25-.76,12,12,0,0,1-3.68-2.32l1.36-1.61a11.73,11.73,0,0,0,3.08,2.07,8.9,8.9,0,0,0,3.58.68,5,5,0,0,0,3.14-.92,2.91,2.91,0,0,0,1.18-2.42,3.17,3.17,0,0,0-.22-1.23,2.55,2.55,0,0,0-.78-1,5.61,5.61,0,0,0-1.54-.81,19.73,19.73,0,0,0-2.52-.69,20.56,20.56,0,0,1-2.9-.83A7.48,7.48,0,0,1,212.45,15a4.25,4.25,0,0,1-1.19-1.56,5.2,5.2,0,0,1-.39-2.11,4.9,4.9,0,0,1,.47-2.14,5.13,5.13,0,0,1,1.33-1.68,6.62,6.62,0,0,1,2-1.11,7.66,7.66,0,0,1,2.55-.4,10.81,10.81,0,0,1,3.73.59,11.27,11.27,0,0,1,3.09,1.77L222.8,10a9.44,9.44,0,0,0-2.74-1.61,8.37,8.37,0,0,0-2.87-.5,5.37,5.37,0,0,0-1.7.25,4.49,4.49,0,0,0-1.31.67,2.86,2.86,0,0,0-.83,1,2.8,2.8,0,0,0-.29,1.25A3.52,3.52,0,0,0,213.28,12.32Z"/><path class="cls-1" d="M76.81,33.62H92.34v4.71H82.19v3.28h9.18V46.1H82.19V53H76.81Z"/><path class="cls-1" d="M97.55,33.62h15.59v4.57H102.85v2.94h9.32v4.25h-9.32v3.08h10.43V53H97.55Z"/><path class="cls-1" d="M126.45,53.36a15.29,15.29,0,0,1-5-.8,12,12,0,0,1-4.14-2.43l3-3.59a9.84,9.84,0,0,0,6.3,2.33,3.22,3.22,0,0,0,1.65-.34,1.09,1.09,0,0,0,.56-1v0a1.05,1.05,0,0,0-.13-.54,1.5,1.5,0,0,0-.52-.46,5.13,5.13,0,0,0-1-.43,16.22,16.22,0,0,0-1.62-.43c-1-.24-2-.5-2.88-.79a8.75,8.75,0,0,1-2.32-1.1,5.2,5.2,0,0,1-1.55-1.69,5.06,5.06,0,0,1-.57-2.51v0a6,6,0,0,1,.51-2.49,5.65,5.65,0,0,1,1.5-2,7.3,7.3,0,0,1,2.37-1.29,10.17,10.17,0,0,1,3.14-.45,13.93,13.93,0,0,1,4.45.65,11.36,11.36,0,0,1,3.53,1.94l-2.69,3.81a10.83,10.83,0,0,0-2.73-1.43,8.28,8.28,0,0,0-2.7-.48,2.43,2.43,0,0,0-1.46.36,1.06,1.06,0,0,0-.48.88v.06a1.09,1.09,0,0,0,.15.58,1.37,1.37,0,0,0,.53.46,5.22,5.22,0,0,0,1,.41c.44.14,1,.29,1.65.43a22.68,22.68,0,0,1,3,.85A8.93,8.93,0,0,1,132.36,43a4.71,4.71,0,0,1,1.44,1.68,5.12,5.12,0,0,1,.5,2.34v0a6,6,0,0,1-.57,2.66,5.67,5.67,0,0,1-1.59,2,7.46,7.46,0,0,1-2.47,1.25A11.47,11.47,0,0,1,126.45,53.36Z"/><path class="cls-1" d="M144.42,38.33H138.6V33.62h17v4.71H149.8V53h-5.38Z"/><path class="cls-1" d="M160.87,33.62h5.41V53h-5.41Z"/><path class="cls-1" d="M171.05,33.62h6l4.41,12.28,4.41-12.28h5.91l-7.88,19.55h-5Z"/><path class="cls-1" d="M203.16,33.48h5.19L216.61,53h-5.77l-1.41-3.46h-7.49L200.55,53H194.9Zm4.72,11.93-2.17-5.52-2.19,5.52Z"/><path class="cls-1" d="M221.27,33.62h5.38v14.7h9.4V53H221.27Z"/></g></g></svg>